<?xml version="1.0" encoding="UTF-8"?>
<!-- Generated by Pixelmator Pro 3.2.3 -->
<svg width="88" height="89" viewBox="0 0 88 89" xmlns="http://www.w3.org/2000/svg" xmlns:xlink="http://www.w3.org/1999/xlink">
    <path id="Path-copy-3" fill="#ffffff" stroke="none" d="M 24 76.5 C 24 83.127419 18.627419 88.5 12 88.5 C 5.372583 88.5 0 83.127419 0 76.5 C 0 69.872581 5.372583 64.5 12 64.5 C 18.627419 64.5 24 69.872581 24 76.5 Z"/>
    <path id="Path-copy-2" fill="#ffffff" stroke="none" d="M 58 88.5 L 41 88.5 C 41 65.856323 22.643673 47.5 0 47.5 L 0 30.5 C 32.032516 30.5 58 56.467484 58 88.5 Z"/>
    <path id="Path-copy" fill="#ffffff" stroke="none" d="M 70 88.5 C 70 49.840065 38.659931 18.5 0 18.5 L 0 1 C 48.324913 1 87.5 40.175079 87.5 88.5 Z"/>
</svg>
