<?xml version="1.0" encoding="UTF-8"?>
<!-- Generated by Pixelmator Pro 3.2.3 -->
<svg width="81" height="81" viewBox="0 0 81 81" xmlns="http://www.w3.org/2000/svg" xmlns:xlink="http://www.w3.org/1999/xlink">
    <g id="Regular-S-copy">
        <path id="Path" fill="#ffffff" stroke="none" d="M 39.82019 80.150391 C 61.353394 80.150391 79.273438 62.279297 79.273438 40.746094 C 79.273438 19.212891 61.304565 1.341797 39.771362 1.341797 C 18.286987 1.341797 0.415894 19.212891 0.415894 40.746094 C 0.415894 62.279297 18.335938 80.150391 39.82019 80.150391 Z M 39.82019 72.728516 C 22.095581 72.728516 7.935547 58.519531 7.935547 40.746094 C 7.935547 22.972656 22.046753 8.763672 39.771362 8.763672 C 57.5448 8.763672 71.802734 22.972656 71.802734 40.746094 C 71.802734 58.519531 57.59375 72.728516 39.82019 72.728516 Z"/>
        <path id="path1" fill="#ffffff" stroke="none" d="M 33.228394 62.376953 L 48.755859 62.376953 C 50.51355 62.376953 51.929565 61.107422 51.929565 59.300781 C 51.929565 57.591797 50.51355 56.273438 48.755859 56.273438 L 44.458862 56.273438 L 44.458862 38.011719 C 44.458862 35.619141 43.286987 34.105469 41.089844 34.105469 L 33.960938 34.105469 C 32.203003 34.105469 30.835938 35.423828 30.835938 37.083984 C 30.835938 38.890625 32.203003 40.160156 33.960938 40.160156 L 37.525269 40.160156 L 37.525269 56.273438 L 33.228394 56.273438 C 31.470581 56.273438 30.054565 57.591797 30.054565 59.300781 C 30.054565 61.107422 31.470581 62.376953 33.228394 62.376953 Z M 39.429565 28.099609 C 42.505859 28.099609 44.898438 25.658203 44.898438 22.582031 C 44.898438 19.505859 42.505859 17.113281 39.429565 17.113281 C 36.402344 17.113281 33.960938 19.505859 33.960938 22.582031 C 33.960938 25.658203 36.402344 28.099609 39.429565 28.099609 Z"/>
    </g>
</svg>
