<?xml version="1.0" encoding="UTF-8"?>
<!-- Generated by Pixelmator Pro 3.2.3 -->
<svg width="87" height="68" viewBox="0 0 87 68" xmlns="http://www.w3.org/2000/svg" xmlns:xlink="http://www.w3.org/1999/xlink">
    <path id="Path-copy" fill="#ffffff" stroke="none" d="M 12.646851 68.144531 L 74.414429 68.144531 C 81.348022 68.144531 85.498413 64.091797 85.498413 55.888672 L 85.498413 13.701172 C 85.498413 5.498047 81.299072 1.445313 73.047241 1.445313 L 11.279541 1.445313 C 4.297241 1.445313 0.195679 5.498047 0.195679 13.701172 L 0.195679 55.888672 C 0.195679 64.091797 4.345947 68.144531 12.646851 68.144531 Z M 12.35376 61.503906 C 8.838257 61.503906 6.885132 59.599609 6.885132 55.888672 L 6.885132 13.652344 C 6.885132 9.990234 8.838257 8.085938 12.35376 8.085938 L 73.29126 8.085938 C 76.807007 8.085938 78.808838 9.990234 78.808838 13.701172 L 78.808838 55.9375 C 78.808838 59.599609 76.807007 61.503906 73.29126 61.503906 Z M 42.871338 45.390625 C 45.703369 45.390625 48.389038 44.267578 51.172241 41.484375 L 82.031616 11.113281 L 77.490479 6.572266 L 47.461182 36.308594 C 45.801147 37.96875 44.385132 38.701172 42.871338 38.701172 C 41.308838 38.701172 39.892944 37.919922 38.232666 36.308594 L 8.008057 6.376953 L 3.515869 10.917969 L 34.521851 41.484375 C 37.305054 44.267578 39.990479 45.390625 42.871338 45.390625 Z M 4.052979 58.28125 L 8.594116 62.822266 L 32.812744 38.652344 L 28.271851 34.160156 Z M 77.148804 62.822266 L 81.640869 58.330078 L 57.422241 34.160156 L 52.930054 38.652344 Z"/>
</svg>
