<?xml version="1.0" encoding="UTF-8"?>
<!-- Generated by Pixelmator Pro 3.2.3 -->
<svg width="230" height="247" viewBox="0 0 230 247" xmlns="http://www.w3.org/2000/svg" xmlns:xlink="http://www.w3.org/1999/xlink">
    <path id="Path" fill="#ffffff" fill-rule="evenodd" stroke="none" d="M 106.367188 247 C 92.669838 246.980087 76.573486 245.258545 58.388672 240.445313 C 9.847384 227.597321 1.499988 175.854797 0.222656 123.353516 C -0.166677 107.765549 0.072266 93.066757 0.072266 80.773438 C 0.072266 27.088165 35.248047 11.351563 35.248047 11.351563 C 52.984028 3.206253 83.418007 -0.217896 115.056641 -0.476563 L 115.833984 -0.476563 C 147.47261 -0.217896 177.925507 3.206253 195.660156 11.351563 C 195.660156 11.351563 230.833984 27.088165 230.833984 80.773438 C 230.833984 80.773438 231.274384 120.382851 225.927734 147.882813 C 222.534378 165.340134 195.535309 184.445786 164.527344 188.148438 C 148.358032 190.077789 132.438858 191.850922 115.462891 191.072266 C 87.700249 189.800262 65.792969 184.445313 65.792969 184.445313 C 65.792969 187.147964 65.959633 189.722229 66.292969 192.128906 C 69.902306 219.527542 93.461365 221.168259 115.777344 221.933594 C 138.301315 222.704269 158.357422 216.380859 158.357422 216.380859 L 159.283203 236.742188 C 159.283203 236.742188 143.528198 245.203766 115.462891 246.759766 C 112.561142 246.919266 109.528114 247.004593 106.367188 247 Z M 41.498047 149.943359 L 67.251953 149.943359 L 67.251953 86.849609 C 67.251953 73.549622 72.847694 66.798828 84.041016 66.798828 C 96.417007 66.798828 102.621094 74.805969 102.621094 90.640625 L 102.621094 125.175781 L 128.222656 125.175781 L 128.222656 90.640625 C 128.222656 74.805969 134.424805 66.798828 146.800781 66.798828 C 157.99411 66.798828 163.589844 73.549622 163.589844 86.849609 L 163.589844 149.943359 L 189.34375 149.943359 L 189.34375 84.9375 C 189.34375 71.652176 185.961304 61.09581 179.167969 53.285156 C 172.159973 45.474503 162.983063 41.470703 151.59375 41.470703 C 138.413773 41.470703 128.435211 46.53598 121.837891 56.667969 L 115.421875 67.421875 L 109.005859 56.667969 C 102.407204 46.53598 92.428658 41.470703 79.25 41.470703 C 67.859344 41.470703 58.682442 45.474503 51.675781 53.285156 C 44.881126 61.09581 41.498047 71.652176 41.498047 84.9375 L 41.498047 149.943359 Z"/>
</svg>
